<mxfile host="65bd71144e" modified="2020-11-07T15:17:02.872Z" agent="5.0 (Windows NT 10.0; Win64; x64) AppleWebKit/537.36 (KHTML, like Gecko) Code/1.49.3 Chrome/83.0.4103.122 Electron/9.2.1 Safari/537.36" version="13.6.5" etag="UOpeSwwQuIg8giNZIUW6">
    <diagram id="ofDJo9-WZQ6ZcxJqF8Cx" name="Page-1">
        <mxGraphModel dx="192" dy="681" grid="1" gridSize="10" guides="1" tooltips="1" connect="1" arrows="1" fold="1" page="0" pageScale="1" pageWidth="850" pageHeight="1100" math="0" shadow="0">
            <root>
                <mxCell id="0"/>
                <mxCell id="1" parent="0"/>
                <mxCell id="19" value="&lt;h1&gt;Аутентификация&lt;/h1&gt;&lt;p&gt;firebase/laravel&lt;/p&gt;&lt;p&gt;говорит сама за себя&lt;/p&gt;" style="text;html=1;strokeColor=none;fillColor=none;spacing=5;spacingTop=-20;whiteSpace=wrap;overflow=hidden;rounded=0;" vertex="1" parent="1">
                    <mxGeometry x="805" y="110" width="320" height="180" as="geometry"/>
                </mxCell>
                <mxCell id="20" value="" style="rounded=1;whiteSpace=wrap;html=1;" vertex="1" parent="1">
                    <mxGeometry x="805" y="110" width="320" height="200" as="geometry"/>
                </mxCell>
                <mxCell id="21" value="&lt;h1&gt;Аутентификация&lt;/h1&gt;&lt;p&gt;firebase/laravel&lt;/p&gt;&lt;p&gt;говорит сама за себя&lt;/p&gt;" style="text;html=1;strokeColor=none;fillColor=none;spacing=5;spacingTop=-20;whiteSpace=wrap;overflow=hidden;rounded=0;" vertex="1" parent="1">
                    <mxGeometry x="805" y="120" width="320" height="180" as="geometry"/>
                </mxCell>
                <mxCell id="22" value="" style="rounded=1;whiteSpace=wrap;html=1;" vertex="1" parent="1">
                    <mxGeometry x="805" y="500" width="320" height="200" as="geometry"/>
                </mxCell>
                <mxCell id="23" value="&lt;h1&gt;Основной сервис&lt;/h1&gt;&lt;p&gt;laravel - python&lt;/p&gt;&lt;p&gt;Принимает данные с фронта и отдает в работу остальным, отправляет результаты обратно на фронт&lt;/p&gt;&lt;p&gt;&lt;br&gt;&lt;/p&gt;" style="text;html=1;strokeColor=none;fillColor=none;spacing=5;spacingTop=-20;whiteSpace=wrap;overflow=hidden;rounded=0;" vertex="1" parent="1">
                    <mxGeometry x="815" y="510" width="305" height="180" as="geometry"/>
                </mxCell>
                <mxCell id="26" value="" style="endArrow=classic;startArrow=classic;html=1;entryX=0.5;entryY=1;entryDx=0;entryDy=0;exitX=0.5;exitY=0;exitDx=0;exitDy=0;" edge="1" parent="1" source="22" target="20">
                    <mxGeometry width="50" height="50" relative="1" as="geometry">
                        <mxPoint x="950" y="450" as="sourcePoint"/>
                        <mxPoint x="1000" y="400" as="targetPoint"/>
                    </mxGeometry>
                </mxCell>
                <mxCell id="27" value="Логин-Пароль" style="text;html=1;strokeColor=none;fillColor=none;align=center;verticalAlign=middle;whiteSpace=wrap;rounded=0;" vertex="1" parent="1">
                    <mxGeometry x="980" y="330" width="40" height="20" as="geometry"/>
                </mxCell>
                <mxCell id="28" value="Результат" style="text;html=1;strokeColor=none;fillColor=none;align=center;verticalAlign=middle;whiteSpace=wrap;rounded=0;" vertex="1" parent="1">
                    <mxGeometry x="980" y="460" width="40" height="20" as="geometry"/>
                </mxCell>
                <mxCell id="33" value="" style="rounded=1;whiteSpace=wrap;html=1;" vertex="1" parent="1">
                    <mxGeometry x="1260" y="500" width="330" height="200" as="geometry"/>
                </mxCell>
                <mxCell id="34" value="&lt;h1&gt;&lt;span&gt;Граббер&amp;nbsp;&lt;/span&gt;&lt;/h1&gt;&lt;h1&gt;&lt;span style=&quot;font-size: 12px ; font-weight: normal&quot;&gt;python&lt;/span&gt;&lt;br&gt;&lt;/h1&gt;&lt;p&gt;Тащит из соцсети посты по айдишнику&lt;/p&gt;&lt;p&gt;&lt;br&gt;&lt;/p&gt;" style="text;html=1;strokeColor=none;fillColor=none;spacing=5;spacingTop=-20;whiteSpace=wrap;overflow=hidden;rounded=0;" vertex="1" parent="1">
                    <mxGeometry x="1265" y="510" width="320" height="180" as="geometry"/>
                </mxCell>
                <mxCell id="38" value="UserID" style="text;html=1;strokeColor=none;fillColor=none;align=center;verticalAlign=middle;whiteSpace=wrap;rounded=0;" vertex="1" parent="1">
                    <mxGeometry x="1180" y="570" width="40" height="20" as="geometry"/>
                </mxCell>
                <mxCell id="39" value="Data" style="text;html=1;strokeColor=none;fillColor=none;align=center;verticalAlign=middle;whiteSpace=wrap;rounded=0;" vertex="1" parent="1">
                    <mxGeometry x="1430" y="790" width="40" height="20" as="geometry"/>
                </mxCell>
                <mxCell id="40" value="" style="endArrow=classic;html=1;entryX=0;entryY=0.5;entryDx=0;entryDy=0;exitX=1;exitY=0.5;exitDx=0;exitDy=0;" edge="1" parent="1" source="22" target="33">
                    <mxGeometry width="50" height="50" relative="1" as="geometry">
                        <mxPoint x="1250" y="490" as="sourcePoint"/>
                        <mxPoint x="1300" y="440" as="targetPoint"/>
                    </mxGeometry>
                </mxCell>
                <mxCell id="42" value="" style="rounded=1;whiteSpace=wrap;html=1;" vertex="1" parent="1">
                    <mxGeometry x="1260" y="820" width="330" height="200" as="geometry"/>
                </mxCell>
                <mxCell id="43" value="&lt;h1&gt;&lt;span&gt;HAL-282&lt;/span&gt;&lt;/h1&gt;&lt;h1&gt;&lt;span style=&quot;font-size: 12px ; font-weight: normal&quot;&gt;python&lt;/span&gt;&lt;br&gt;&lt;/h1&gt;&lt;p&gt;Применяет к данным магиию искуственного интеллекта и чет получает&lt;/p&gt;" style="text;html=1;strokeColor=none;fillColor=none;spacing=5;spacingTop=-20;whiteSpace=wrap;overflow=hidden;rounded=0;" vertex="1" parent="1">
                    <mxGeometry x="1265" y="830" width="320" height="180" as="geometry"/>
                </mxCell>
                <mxCell id="44" value="" style="endArrow=classic;html=1;exitX=0.5;exitY=1;exitDx=0;exitDy=0;entryX=0.5;entryY=0;entryDx=0;entryDy=0;" edge="1" parent="1" source="33" target="42">
                    <mxGeometry width="50" height="50" relative="1" as="geometry">
                        <mxPoint x="1390" y="790" as="sourcePoint"/>
                        <mxPoint x="1440" y="740" as="targetPoint"/>
                    </mxGeometry>
                </mxCell>
                <mxCell id="45" value="" style="endArrow=classic;html=1;entryX=0.48;entryY=1.01;entryDx=0;entryDy=0;exitX=0;exitY=0.5;exitDx=0;exitDy=0;entryPerimeter=0;" edge="1" parent="1" source="43" target="22">
                    <mxGeometry width="50" height="50" relative="1" as="geometry">
                        <mxPoint x="1250" y="880" as="sourcePoint"/>
                        <mxPoint x="1300" y="830" as="targetPoint"/>
                        <Array as="points">
                            <mxPoint x="960" y="920"/>
                        </Array>
                    </mxGeometry>
                </mxCell>
                <mxCell id="46" value="result" style="text;html=1;strokeColor=none;fillColor=none;align=center;verticalAlign=middle;whiteSpace=wrap;rounded=0;" vertex="1" parent="1">
                    <mxGeometry x="970" y="720" width="40" height="20" as="geometry"/>
                </mxCell>
                <mxCell id="47" value="" style="endArrow=classic;html=1;entryX=0.25;entryY=0;entryDx=0;entryDy=0;exitX=1.033;exitY=0.833;exitDx=0;exitDy=0;exitPerimeter=0;" edge="1" parent="1" source="23" target="42">
                    <mxGeometry width="50" height="50" relative="1" as="geometry">
                        <mxPoint x="1150" y="790" as="sourcePoint"/>
                        <mxPoint x="1200" y="740" as="targetPoint"/>
                        <Array as="points">
                            <mxPoint x="1200" y="660"/>
                            <mxPoint x="1200" y="760"/>
                            <mxPoint x="1343" y="760"/>
                        </Array>
                    </mxGeometry>
                </mxCell>
                <mxCell id="48" value="Data" style="text;html=1;strokeColor=none;fillColor=none;align=center;verticalAlign=middle;whiteSpace=wrap;rounded=0;" vertex="1" parent="1">
                    <mxGeometry x="1290" y="780" width="40" height="20" as="geometry"/>
                </mxCell>
            </root>
        </mxGraphModel>
    </diagram>
</mxfile>